<svg width="88" height="44" viewBox="0 0 88 44" fill="none" xmlns="http://www.w3.org/2000/svg">
<path d="M45.872 32.48L51.56 15.512H49.688L44 32.48H45.872ZM65.4738 32.288C69.9618 32.288 71.8578 28.016 71.8578 24.008C71.8578 19.976 69.9618 15.752 65.4738 15.752C60.9618 15.752 59.0658 19.976 59.0658 24.008C59.0658 28.016 60.9618 32.288 65.4738 32.288ZM65.4738 29.792C62.8578 29.792 61.9218 27.056 61.9218 24.008C61.9218 20.936 62.8578 18.248 65.4738 18.248C68.0898 18.248 69.0018 20.936 69.0018 24.008C69.0018 27.056 68.0658 29.792 65.4738 29.792ZM80.3163 32.288C83.8923 32.288 86.4363 30.176 86.4363 26.864C86.4363 23.576 84.0123 21.704 81.3003 21.704C79.7643 21.704 78.4683 22.328 77.6763 23.072V18.464H85.3563V15.992H74.8683V24.92L76.8603 25.496C77.8923 24.536 79.0203 24.128 80.3643 24.128C82.3323 24.128 83.5803 25.256 83.5803 26.96C83.5803 28.544 82.3323 29.792 80.2923 29.792C78.5163 29.792 77.0523 29.12 75.9963 27.872L74.3883 29.816C75.6843 31.328 77.5803 32.288 80.3163 32.288Z" fill="#A2A3B1"/>
<path d="M9.92 32.384C16 32.384 18.752 26.848 18.752 21.344C18.752 15.84 16 10.336 9.92 10.336C3.808 10.336 1.088 15.84 1.088 21.344C1.088 26.848 3.808 32.384 9.92 32.384ZM9.92 28.352C6.848 28.352 5.696 25.28 5.696 21.344C5.696 17.408 6.848 14.368 9.92 14.368C12.96 14.368 14.112 17.408 14.112 21.344C14.112 25.28 12.96 28.352 9.92 28.352ZM30.8838 32V10.656H26.9158L20.1958 17.408L22.7878 20.128L26.3398 16.512V32H30.8838Z" fill="#17183B"/>
</svg>
