<svg width="196" height="24" viewBox="0 0 196 24" fill="none" xmlns="http://www.w3.org/2000/svg">
<path d="M6.73467 5.5029C6.84723 5.28956 7.15277 5.28956 7.26533 5.5029L9.0707 8.92471C9.11411 9.00699 9.19323 9.06447 9.28489 9.08033L13.0971 9.73994C13.3348 9.78106 13.4292 10.0717 13.2611 10.2446L10.5647 13.019C10.4998 13.0857 10.4696 13.1788 10.4828 13.2708L11.0336 17.1003C11.0679 17.3391 10.8207 17.5187 10.6042 17.4122L7.13237 15.7051C7.0489 15.664 6.9511 15.664 6.86763 15.7051L3.39576 17.4122C3.1793 17.5187 2.93211 17.3391 2.96644 17.1003L3.51716 13.2708C3.5304 13.1788 3.50018 13.0857 3.43534 13.019L0.738899 10.2446C0.57078 10.0717 0.665199 9.78106 0.902885 9.73994L4.71511 9.08033C4.80677 9.06447 4.88589 9.00699 4.9293 8.92471L6.73467 5.5029Z" fill="#FFC41F"/>
<path d="M24.7347 5.5029C24.8472 5.28956 25.1528 5.28956 25.2653 5.5029L27.0707 8.92471C27.1141 9.00699 27.1932 9.06447 27.2849 9.08033L31.0971 9.73994C31.3348 9.78106 31.4292 10.0717 31.2611 10.2446L28.5647 13.019C28.4998 13.0857 28.4696 13.1788 28.4828 13.2708L29.0336 17.1003C29.0679 17.3391 28.8207 17.5187 28.6042 17.4122L25.1324 15.7051C25.0489 15.664 24.9511 15.664 24.8676 15.7051L21.3958 17.4122C21.1793 17.5187 20.9321 17.3391 20.9664 17.1003L21.5172 13.2708C21.5304 13.1788 21.5002 13.0857 21.4353 13.019L18.7389 10.2446C18.5708 10.0717 18.6652 9.78106 18.9029 9.73994L22.7151 9.08033C22.8068 9.06447 22.8859 9.00699 22.9293 8.92471L24.7347 5.5029Z" fill="#FFC41F"/>
<path d="M42.7347 5.5029C42.8472 5.28956 43.1528 5.28956 43.2653 5.5029L45.0707 8.92471C45.1141 9.00699 45.1932 9.06447 45.2849 9.08033L49.0971 9.73994C49.3348 9.78106 49.4292 10.0717 49.2611 10.2446L46.5647 13.019C46.4998 13.0857 46.4696 13.1788 46.4828 13.2708L47.0336 17.1003C47.0679 17.3391 46.8207 17.5187 46.6042 17.4122L43.1324 15.7051C43.0489 15.664 42.9511 15.664 42.8676 15.7051L39.3958 17.4122C39.1793 17.5187 38.9321 17.3391 38.9664 17.1003L39.5172 13.2708C39.5304 13.1788 39.5002 13.0857 39.4353 13.019L36.7389 10.2446C36.5708 10.0717 36.6652 9.78106 36.9029 9.73994L40.7151 9.08033C40.8068 9.06447 40.8859 9.00699 40.9293 8.92471L42.7347 5.5029Z" fill="#FFC41F"/>
<path d="M60.7347 5.5029C60.8472 5.28956 61.1528 5.28956 61.2653 5.5029L63.0707 8.92471C63.1141 9.00699 63.1932 9.06447 63.2849 9.08033L67.0971 9.73994C67.3348 9.78106 67.4292 10.0717 67.2611 10.2446L64.5647 13.019C64.4998 13.0857 64.4696 13.1788 64.4828 13.2708L65.0336 17.1003C65.0679 17.3391 64.8207 17.5187 64.6042 17.4122L61.1324 15.7051C61.0489 15.664 60.9511 15.664 60.8676 15.7051L57.3958 17.4122C57.1793 17.5187 56.9321 17.3391 56.9664 17.1003L57.5172 13.2708C57.5304 13.1788 57.5002 13.0857 57.4353 13.019L54.7389 10.2446C54.5708 10.0717 54.6652 9.78106 54.9029 9.73994L58.7151 9.08033C58.8068 9.06447 58.8859 9.00699 58.9293 8.92471L60.7347 5.5029Z" fill="#FFC41F"/>
<path d="M78.7347 5.5029C78.8472 5.28956 79.1528 5.28956 79.2653 5.5029L81.0707 8.92471C81.1141 9.00699 81.1932 9.06447 81.2849 9.08033L85.0971 9.73994C85.3348 9.78106 85.4292 10.0717 85.2611 10.2446L82.5647 13.019C82.4998 13.0857 82.4696 13.1788 82.4828 13.2708L83.0336 17.1003C83.0679 17.3391 82.8207 17.5187 82.6042 17.4122L79.1324 15.7051C79.0489 15.664 78.9511 15.664 78.8676 15.7051L75.3958 17.4122C75.1793 17.5187 74.9321 17.3391 74.9664 17.1003L75.5172 13.2708C75.5304 13.1788 75.5002 13.0857 75.4353 13.019L72.7389 10.2446C72.5708 10.0717 72.6652 9.78106 72.9029 9.73994L76.7151 9.08033C76.8068 9.06447 76.8859 9.00699 76.9293 8.92471L78.7347 5.5029Z" fill="#D1D1D8"/>
<path fill-rule="evenodd" clip-rule="evenodd" d="M79.3463 5.65616L79.2653 5.50278C79.1528 5.28944 78.8472 5.28944 78.7347 5.50278L76.9293 8.92459C76.8859 9.00687 76.8068 9.06435 76.7151 9.08021L72.9029 9.73982C72.6652 9.78094 72.5708 10.0715 72.7389 10.2445L75.4354 13.0189C75.5002 13.0856 75.5304 13.1786 75.5172 13.2707L74.9664 17.1002C74.9321 17.3389 75.1793 17.5185 75.3958 17.4121L78.8676 15.705C78.9511 15.6639 79.0489 15.6639 79.1324 15.705L79.3463 15.8101V5.65616Z" fill="#FFC41F"/>
<path d="M104.912 17V14.296H106.416V13.128H104.912V6.328H103.088L98.512 13.192V14.296H103.584V17H104.912ZM103.584 13.128H99.84L103.584 7.56V13.128ZM108.762 17.16C109.242 17.16 109.642 16.76 109.642 16.28C109.642 15.8 109.242 15.4 108.762 15.4C108.282 15.4 107.882 15.8 107.882 16.28C107.882 16.76 108.282 17.16 108.762 17.16ZM115.069 17.192C117.389 17.192 118.797 15.544 118.797 13.704C118.797 11.432 117.229 10.296 115.309 10.296C113.933 10.296 112.749 11.224 112.285 11.96C112.285 11.816 112.285 11.688 112.285 11.544C112.285 9.448 113.213 7.352 115.293 7.352C116.397 7.352 117.021 7.8 117.565 8.44L118.237 7.448C117.581 6.68 116.653 6.168 115.293 6.168C112.285 6.168 110.941 8.792 110.941 11.672C110.941 14.584 112.077 17.192 115.069 17.192ZM115.005 16.008C113.149 16.008 112.445 14.36 112.333 13.032C112.909 12.104 113.933 11.448 115.005 11.448C116.365 11.448 117.453 12.184 117.453 13.752C117.453 14.76 116.653 16.008 115.005 16.008ZM124.663 17.32L128.455 6.008H127.511L123.719 17.32H124.663ZM137.41 17.192C139.554 17.192 141.218 15.832 141.218 13.672C141.218 11.464 139.602 10.264 137.81 10.264C136.738 10.264 135.842 10.712 135.314 11.224V7.512H140.514V6.328H133.986V12.072L134.962 12.408C135.682 11.72 136.498 11.416 137.426 11.416C138.866 11.416 139.874 12.312 139.874 13.72C139.874 15.016 138.866 16.008 137.41 16.008C136.114 16.008 135.17 15.496 134.466 14.584L133.65 15.48C134.45 16.536 135.618 17.192 137.41 17.192ZM143.871 17.16C144.351 17.16 144.751 16.76 144.751 16.28C144.751 15.8 144.351 15.4 143.871 15.4C143.391 15.4 142.991 15.8 142.991 16.28C142.991 16.76 143.391 17.16 143.871 17.16ZM150.13 17.192C153.042 17.192 154.21 14.264 154.21 11.672C154.21 9.064 153.042 6.168 150.13 6.168C147.202 6.168 146.05 9.064 146.05 11.672C146.05 14.264 147.202 17.192 150.13 17.192ZM150.13 16.008C148.098 16.008 147.41 13.8 147.41 11.672C147.41 9.544 148.098 7.352 150.13 7.352C152.162 7.352 152.85 9.544 152.85 11.672C152.85 13.8 152.162 16.008 150.13 16.008Z" fill="#17183B"/>
<path d="M162.868 19.624C161.828 17.608 161.188 15.768 161.188 13.112C161.188 10.44 161.828 8.616 162.868 6.584L162.132 6.04C160.692 8.024 159.876 10.536 159.876 13.112C159.876 15.688 160.692 18.2 162.132 20.184L162.868 19.624ZM167.957 17.192C170.101 17.192 171.765 15.832 171.765 13.672C171.765 11.464 170.149 10.264 168.357 10.264C167.285 10.264 166.389 10.712 165.861 11.224V7.512H171.061V6.328H164.533V12.072L165.509 12.408C166.229 11.72 167.045 11.416 167.973 11.416C169.413 11.416 170.421 12.312 170.421 13.72C170.421 15.016 169.413 16.008 167.957 16.008C166.661 16.008 165.717 15.496 165.013 14.584L164.197 15.48C164.997 16.536 166.165 17.192 167.957 17.192ZM177.394 17.192C179.538 17.192 181.202 15.832 181.202 13.672C181.202 11.464 179.586 10.264 177.794 10.264C176.722 10.264 175.826 10.712 175.298 11.224V7.512H180.498V6.328H173.97V12.072L174.946 12.408C175.666 11.72 176.482 11.416 177.41 11.416C178.85 11.416 179.858 12.312 179.858 13.72C179.858 15.016 178.85 16.008 177.394 16.008C176.098 16.008 175.154 15.496 174.45 14.584L173.634 15.48C174.434 16.536 175.602 17.192 177.394 17.192ZM186.96 17.192C189.28 17.192 190.688 15.544 190.688 13.704C190.688 11.432 189.12 10.296 187.2 10.296C185.824 10.296 184.64 11.224 184.176 11.96C184.176 11.816 184.176 11.688 184.176 11.544C184.176 9.448 185.104 7.352 187.184 7.352C188.288 7.352 188.912 7.8 189.456 8.44L190.128 7.448C189.472 6.68 188.544 6.168 187.184 6.168C184.176 6.168 182.832 8.792 182.832 11.672C182.832 14.584 183.968 17.192 186.96 17.192ZM186.896 16.008C185.04 16.008 184.336 14.36 184.224 13.032C184.8 12.104 185.824 11.448 186.896 11.448C188.256 11.448 189.344 12.184 189.344 13.752C189.344 14.76 188.544 16.008 186.896 16.008ZM191.741 19.624C192.781 17.608 193.421 15.768 193.421 13.112C193.421 10.44 192.781 8.616 191.741 6.584L192.477 6.04C193.917 8.024 194.733 10.536 194.733 13.112C194.733 15.688 193.917 18.2 192.477 20.184L191.741 19.624Z" fill="#A2A3B1"/>
</svg>
